<?xml version="1.0" encoding="UTF-8" standalone="no"?>
<!-- This is a Stata 15.1 generated SVG file (http://www.stata.com) -->

<svg version="1.1" width="5.50in" height="4.00in" viewBox="0 0 3960 2880" xmlns="http://www.w3.org/2000/svg" xmlns:xlink="http://www.w3.org/1999/xlink">
	<desc>Stata Graph - Graph</desc>
	<rect x="0" y="0" width="3960" height="2880" style="fill:#EAF2F3;stroke:none"/>
	<rect x="0.00" y="0.00" width="3959.88" height="2880.00" style="fill:#EAF2F3"/>
	<rect x="2.88" y="2.88" width="3954.12" height="2874.24" style="fill:none;stroke:#EAF2F3;stroke-width:5.76"/>
	<rect x="390.80" y="100.86" width="3468.22" height="2388.33" style="fill:#FFFFFF"/>
	<rect x="393.68" y="103.74" width="3462.46" height="2382.57" style="fill:none;stroke:#FFFFFF;stroke-width:5.76"/>
	<line x1="390.80" y1="2425.82" x2="3859.02" y2="2425.82" style="stroke:#EAF2F3;stroke-width:8.64"/>
	<line x1="390.80" y1="1711.64" x2="3859.02" y2="1711.64" style="stroke:#EAF2F3;stroke-width:8.64"/>
	<line x1="390.80" y1="997.46" x2="3859.02" y2="997.46" style="stroke:#EAF2F3;stroke-width:8.64"/>
	<line x1="390.80" y1="283.15" x2="3859.02" y2="283.15" style="stroke:#EAF2F3;stroke-width:8.64"/>
	<circle cx="1839.17" cy="1516.85" r="26.35" style="fill:#0000FF;fill-opacity:0.50"/>
	<circle cx="1839.17" cy="1516.85" r="22.03" style="fill:none;stroke:#0000FF;stroke-opacity:0.50;stroke-width:8.64"/>
	<circle cx="2157.46" cy="1039.53" r="26.35" style="fill:#0000FF;fill-opacity:0.50"/>
	<circle cx="2157.46" cy="1039.53" r="22.03" style="fill:none;stroke:#0000FF;stroke-opacity:0.50;stroke-width:8.64"/>
	<circle cx="1619.39" cy="1516.85" r="26.35" style="fill:#0000FF;fill-opacity:0.50"/>
	<circle cx="1619.39" cy="1516.85" r="22.03" style="fill:none;stroke:#0000FF;stroke-opacity:0.50;stroke-width:8.64"/>
	<circle cx="2081.72" cy="1354.61" r="26.35" style="fill:#0000FF;fill-opacity:0.50"/>
	<circle cx="2081.72" cy="1354.61" r="22.03" style="fill:none;stroke:#0000FF;stroke-opacity:0.50;stroke-width:8.64"/>
	<circle cx="2710.74" cy="759.35" r="26.35" style="fill:#0000FF;fill-opacity:0.50"/>
	<circle cx="2710.74" cy="759.35" r="22.03" style="fill:none;stroke:#0000FF;stroke-opacity:0.50;stroke-width:8.64"/>
	<circle cx="2400.01" cy="1156.23" r="26.35" style="fill:#0000FF;fill-opacity:0.50"/>
	<circle cx="2400.01" cy="1156.23" r="22.03" style="fill:none;stroke:#0000FF;stroke-opacity:0.50;stroke-width:8.64"/>
	<circle cx="1308.66" cy="1766.59" r="26.35" style="fill:#0000FF;fill-opacity:0.50"/>
	<circle cx="1308.66" cy="1766.59" r="22.03" style="fill:none;stroke:#0000FF;stroke-opacity:0.50;stroke-width:8.64"/>
	<circle cx="2104.49" cy="1354.61" r="26.35" style="fill:#0000FF;fill-opacity:0.50"/>
	<circle cx="2104.49" cy="1354.61" r="22.03" style="fill:none;stroke:#0000FF;stroke-opacity:0.50;stroke-width:8.64"/>
	<circle cx="2559.15" cy="908.23" r="26.35" style="fill:#0000FF;fill-opacity:0.50"/>
	<circle cx="2559.15" cy="908.23" r="22.03" style="fill:none;stroke:#0000FF;stroke-opacity:0.50;stroke-width:8.64"/>
	<circle cx="2195.45" cy="1260.56" r="26.35" style="fill:#0000FF;fill-opacity:0.50"/>
	<circle cx="2195.45" cy="1260.56" r="22.03" style="fill:none;stroke:#0000FF;stroke-opacity:0.50;stroke-width:8.64"/>
	<circle cx="2900.20" cy="589.32" r="26.35" style="fill:#0000FF;fill-opacity:0.50"/>
	<circle cx="2900.20" cy="589.32" r="22.03" style="fill:none;stroke:#0000FF;stroke-opacity:0.50;stroke-width:8.64"/>
	<circle cx="2574.37" cy="589.32" r="26.35" style="fill:#0000FF;fill-opacity:0.50"/>
	<circle cx="2574.37" cy="589.32" r="22.03" style="fill:none;stroke:#0000FF;stroke-opacity:0.50;stroke-width:8.64"/>
	<circle cx="2869.89" cy="1439.63" r="26.35" style="fill:#0000FF;fill-opacity:0.50"/>
	<circle cx="2869.89" cy="1439.63" r="22.03" style="fill:none;stroke:#0000FF;stroke-opacity:0.50;stroke-width:8.64"/>
	<circle cx="1217.70" cy="1908.66" r="26.35" style="fill:#0000FF;fill-opacity:0.50"/>
	<circle cx="1217.70" cy="1908.66" r="22.03" style="fill:none;stroke:#0000FF;stroke-opacity:0.50;stroke-width:8.64"/>
	<circle cx="2415.23" cy="908.23" r="26.35" style="fill:#0000FF;fill-opacity:0.50"/>
	<circle cx="2415.23" cy="908.23" r="22.03" style="fill:none;stroke:#0000FF;stroke-opacity:0.50;stroke-width:8.64"/>
	<circle cx="2028.63" cy="1516.85" r="26.35" style="fill:#0000FF;fill-opacity:0.50"/>
	<circle cx="2028.63" cy="1516.85" r="22.03" style="fill:none;stroke:#0000FF;stroke-opacity:0.50;stroke-width:8.64"/>
	<circle cx="2058.95" cy="1516.85" r="26.35" style="fill:#0000FF;fill-opacity:0.50"/>
	<circle cx="2058.95" cy="1516.85" r="22.03" style="fill:none;stroke:#0000FF;stroke-opacity:0.50;stroke-width:8.64"/>
	<circle cx="1702.80" cy="1652.11" r="26.35" style="fill:#0000FF;fill-opacity:0.50"/>
	<circle cx="1702.80" cy="1652.11" r="22.03" style="fill:none;stroke:#0000FF;stroke-opacity:0.50;stroke-width:8.64"/>
	<circle cx="2218.09" cy="1260.56" r="26.35" style="fill:#0000FF;fill-opacity:0.50"/>
	<circle cx="2218.09" cy="1260.56" r="22.03" style="fill:none;stroke:#0000FF;stroke-opacity:0.50;stroke-width:8.64"/>
	<circle cx="1225.37" cy="1949.74" r="26.35" style="fill:#0000FF;fill-opacity:0.50"/>
	<circle cx="1225.37" cy="1949.74" r="22.03" style="fill:none;stroke:#0000FF;stroke-opacity:0.50;stroke-width:8.64"/>
	<circle cx="2346.92" cy="1156.23" r="26.35" style="fill:#0000FF;fill-opacity:0.50"/>
	<circle cx="2346.92" cy="1156.23" r="22.03" style="fill:none;stroke:#0000FF;stroke-opacity:0.50;stroke-width:8.64"/>
	<circle cx="2346.92" cy="908.23" r="26.35" style="fill:#0000FF;fill-opacity:0.50"/>
	<circle cx="2346.92" cy="908.23" r="22.03" style="fill:none;stroke:#0000FF;stroke-opacity:0.50;stroke-width:8.64"/>
	<circle cx="2453.10" cy="1039.53" r="26.35" style="fill:#0000FF;fill-opacity:0.50"/>
	<circle cx="2453.10" cy="1039.53" r="22.03" style="fill:none;stroke:#0000FF;stroke-opacity:0.50;stroke-width:8.64"/>
	<circle cx="982.82" cy="1864.72" r="26.35" style="fill:#0000FF;fill-opacity:0.50"/>
	<circle cx="982.82" cy="1864.72" r="22.03" style="fill:none;stroke:#0000FF;stroke-opacity:0.50;stroke-width:8.64"/>
	<circle cx="1627.07" cy="1439.63" r="26.35" style="fill:#0000FF;fill-opacity:0.50"/>
	<circle cx="1627.07" cy="1439.63" r="22.03" style="fill:none;stroke:#0000FF;stroke-opacity:0.50;stroke-width:8.64"/>
	<circle cx="3286.68" cy="164.22" r="26.35" style="fill:#0000FF;fill-opacity:0.50"/>
	<circle cx="3286.68" cy="164.22" r="22.03" style="fill:none;stroke:#0000FF;stroke-opacity:0.50;stroke-width:8.64"/>
	<circle cx="3195.72" cy="164.22" r="26.35" style="fill:#0000FF;fill-opacity:0.50"/>
	<circle cx="3195.72" cy="164.22" r="22.03" style="fill:none;stroke:#0000FF;stroke-opacity:0.50;stroke-width:8.64"/>
	<circle cx="2521.28" cy="589.32" r="26.35" style="fill:#0000FF;fill-opacity:0.50"/>
	<circle cx="2521.28" cy="589.32" r="22.03" style="fill:none;stroke:#0000FF;stroke-opacity:0.50;stroke-width:8.64"/>
	<circle cx="1573.98" cy="1516.85" r="26.35" style="fill:#0000FF;fill-opacity:0.50"/>
	<circle cx="1573.98" cy="1516.85" r="22.03" style="fill:none;stroke:#0000FF;stroke-opacity:0.50;stroke-width:8.64"/>
	<circle cx="2695.52" cy="589.32" r="26.35" style="fill:#0000FF;fill-opacity:0.50"/>
	<circle cx="2695.52" cy="589.32" r="22.03" style="fill:none;stroke:#0000FF;stroke-opacity:0.50;stroke-width:8.64"/>
	<circle cx="2437.88" cy="759.35" r="26.35" style="fill:#0000FF;fill-opacity:0.50"/>
	<circle cx="2437.88" cy="759.35" r="22.03" style="fill:none;stroke:#0000FF;stroke-opacity:0.50;stroke-width:8.64"/>
	<circle cx="2172.68" cy="1156.23" r="26.35" style="fill:#0000FF;fill-opacity:0.50"/>
	<circle cx="2172.68" cy="1156.23" r="22.03" style="fill:none;stroke:#0000FF;stroke-opacity:0.50;stroke-width:8.64"/>
	<circle cx="2748.61" cy="589.32" r="26.35" style="fill:#0000FF;fill-opacity:0.50"/>
	<circle cx="2748.61" cy="589.32" r="22.03" style="fill:none;stroke:#0000FF;stroke-opacity:0.50;stroke-width:8.64"/>
	<circle cx="1763.44" cy="1354.61" r="26.35" style="fill:#0000FF;fill-opacity:0.50"/>
	<circle cx="1763.44" cy="1354.61" r="22.03" style="fill:none;stroke:#0000FF;stroke-opacity:0.50;stroke-width:8.64"/>
	<circle cx="2695.52" cy="1439.63" r="26.35" style="fill:#0000FF;fill-opacity:0.50"/>
	<circle cx="2695.52" cy="1439.63" r="22.03" style="fill:none;stroke:#0000FF;stroke-opacity:0.50;stroke-width:8.64"/>
	<circle cx="2127.14" cy="1260.56" r="26.35" style="fill:#0000FF;fill-opacity:0.50"/>
	<circle cx="2127.14" cy="1260.56" r="22.03" style="fill:none;stroke:#0000FF;stroke-opacity:0.50;stroke-width:8.64"/>
	<circle cx="2119.59" cy="1260.56" r="26.35" style="fill:#0000FF;fill-opacity:0.50"/>
	<circle cx="2119.59" cy="1260.56" r="22.03" style="fill:none;stroke:#0000FF;stroke-opacity:0.50;stroke-width:8.64"/>
	<circle cx="2415.23" cy="1156.23" r="26.35" style="fill:#0000FF;fill-opacity:0.50"/>
	<circle cx="2415.23" cy="1156.23" r="22.03" style="fill:none;stroke:#0000FF;stroke-opacity:0.50;stroke-width:8.64"/>
	<circle cx="2172.68" cy="1260.56" r="26.35" style="fill:#0000FF;fill-opacity:0.50"/>
	<circle cx="2172.68" cy="1260.56" r="22.03" style="fill:none;stroke:#0000FF;stroke-opacity:0.50;stroke-width:8.64"/>
	<circle cx="1687.58" cy="1652.11" r="26.35" style="fill:#0000FF;fill-opacity:0.50"/>
	<circle cx="1687.58" cy="1652.11" r="22.03" style="fill:none;stroke:#0000FF;stroke-opacity:0.50;stroke-width:8.64"/>
	<circle cx="2672.88" cy="908.23" r="26.35" style="fill:#0000FF;fill-opacity:0.50"/>
	<circle cx="2672.88" cy="908.23" r="22.03" style="fill:none;stroke:#0000FF;stroke-opacity:0.50;stroke-width:8.64"/>
	<circle cx="2089.27" cy="1864.72" r="26.35" style="fill:#0000FF;fill-opacity:0.50"/>
	<circle cx="2089.27" cy="1864.72" r="22.03" style="fill:none;stroke:#0000FF;stroke-opacity:0.50;stroke-width:8.64"/>
	<circle cx="982.82" cy="2089.83" r="26.35" style="fill:#0000FF;fill-opacity:0.50"/>
	<circle cx="982.82" cy="2089.83" r="22.03" style="fill:none;stroke:#0000FF;stroke-opacity:0.50;stroke-width:8.64"/>
	<circle cx="1286.01" cy="1711.64" r="26.35" style="fill:#0000FF;fill-opacity:0.50"/>
	<circle cx="1286.01" cy="1711.64" r="22.03" style="fill:none;stroke:#0000FF;stroke-opacity:0.50;stroke-width:8.64"/>
	<circle cx="1528.44" cy="1766.59" r="26.35" style="fill:#0000FF;fill-opacity:0.50"/>
	<circle cx="1528.44" cy="1766.59" r="22.03" style="fill:none;stroke:#0000FF;stroke-opacity:0.50;stroke-width:8.64"/>
	<circle cx="2142.36" cy="1156.23" r="26.35" style="fill:#0000FF;fill-opacity:0.50"/>
	<circle cx="2142.36" cy="1156.23" r="22.03" style="fill:none;stroke:#0000FF;stroke-opacity:0.50;stroke-width:8.64"/>
	<circle cx="2422.78" cy="1156.23" r="26.35" style="fill:#0000FF;fill-opacity:0.50"/>
	<circle cx="2422.78" cy="1156.23" r="22.03" style="fill:none;stroke:#0000FF;stroke-opacity:0.50;stroke-width:8.64"/>
	<circle cx="2248.41" cy="1156.23" r="26.35" style="fill:#0000FF;fill-opacity:0.50"/>
	<circle cx="2248.41" cy="1156.23" r="22.03" style="fill:none;stroke:#0000FF;stroke-opacity:0.50;stroke-width:8.64"/>
	<circle cx="2051.40" cy="1260.56" r="26.35" style="fill:#0000FF;fill-opacity:0.50"/>
	<circle cx="2051.40" cy="1260.56" r="22.03" style="fill:none;stroke:#0000FF;stroke-opacity:0.50;stroke-width:8.64"/>
	<circle cx="2043.86" cy="1260.56" r="26.35" style="fill:#0000FF;fill-opacity:0.50"/>
	<circle cx="2043.86" cy="1260.56" r="22.03" style="fill:none;stroke:#0000FF;stroke-opacity:0.50;stroke-width:8.64"/>
	<circle cx="2210.55" cy="1260.56" r="26.35" style="fill:#0000FF;fill-opacity:0.50"/>
	<circle cx="2210.55" cy="1260.56" r="22.03" style="fill:none;stroke:#0000FF;stroke-opacity:0.50;stroke-width:8.64"/>
	<circle cx="1657.26" cy="1652.11" r="26.35" style="fill:#0000FF;fill-opacity:0.50"/>
	<circle cx="1657.26" cy="1652.11" r="22.03" style="fill:none;stroke:#0000FF;stroke-opacity:0.50;stroke-width:8.64"/>
	<circle cx="1763.44" cy="1039.53" r="26.35" style="fill:#0000FF;fill-opacity:0.50"/>
	<circle cx="1763.44" cy="1039.53" r="22.03" style="fill:none;stroke:#0000FF;stroke-opacity:0.50;stroke-width:8.64"/>
	<circle cx="1187.51" cy="1587.51" r="26.35" style="fill:#0000FF;fill-opacity:0.50"/>
	<circle cx="1187.51" cy="1587.51" r="22.03" style="fill:none;stroke:#0000FF;stroke-opacity:0.50;stroke-width:8.64"/>
	<circle cx="1627.07" cy="1711.64" r="26.35" style="fill:#0000FF;fill-opacity:0.50"/>
	<circle cx="1627.07" cy="1711.64" r="22.03" style="fill:none;stroke:#0000FF;stroke-opacity:0.50;stroke-width:8.64"/>
	<circle cx="1414.83" cy="1587.51" r="26.35" style="fill:#0000FF;fill-opacity:0.50"/>
	<circle cx="1414.83" cy="1587.51" r="22.03" style="fill:none;stroke:#0000FF;stroke-opacity:0.50;stroke-width:8.64"/>
	<circle cx="1149.51" cy="2119.78" r="26.35" style="fill:#0000FF;fill-opacity:0.50"/>
	<circle cx="1149.51" cy="2119.78" r="22.03" style="fill:none;stroke:#0000FF;stroke-opacity:0.50;stroke-width:8.64"/>
	<circle cx="1346.65" cy="1652.11" r="26.35" style="fill:#0000FF;fill-opacity:0.50"/>
	<circle cx="1346.65" cy="1652.11" r="22.03" style="fill:none;stroke:#0000FF;stroke-opacity:0.50;stroke-width:8.64"/>
	<circle cx="1702.80" cy="1439.63" r="26.35" style="fill:#0000FF;fill-opacity:0.50"/>
	<circle cx="1702.80" cy="1439.63" r="22.03" style="fill:none;stroke:#0000FF;stroke-opacity:0.50;stroke-width:8.64"/>
	<circle cx="1232.92" cy="1439.63" r="26.35" style="fill:#0000FF;fill-opacity:0.50"/>
	<circle cx="1232.92" cy="1439.63" r="22.03" style="fill:none;stroke:#0000FF;stroke-opacity:0.50;stroke-width:8.64"/>
	<circle cx="1316.33" cy="1711.64" r="26.35" style="fill:#0000FF;fill-opacity:0.50"/>
	<circle cx="1316.33" cy="1711.64" r="22.03" style="fill:none;stroke:#0000FF;stroke-opacity:0.50;stroke-width:8.64"/>
	<circle cx="952.50" cy="1864.72" r="26.35" style="fill:#0000FF;fill-opacity:0.50"/>
	<circle cx="952.50" cy="1864.72" r="22.03" style="fill:none;stroke:#0000FF;stroke-opacity:0.50;stroke-width:8.64"/>
	<circle cx="1119.19" cy="1949.74" r="26.35" style="fill:#0000FF;fill-opacity:0.50"/>
	<circle cx="1119.19" cy="1949.74" r="22.03" style="fill:none;stroke:#0000FF;stroke-opacity:0.50;stroke-width:8.64"/>
	<circle cx="2210.55" cy="589.32" r="26.35" style="fill:#0000FF;fill-opacity:0.50"/>
	<circle cx="2210.55" cy="589.32" r="22.03" style="fill:none;stroke:#0000FF;stroke-opacity:0.50;stroke-width:8.64"/>
	<circle cx="1005.59" cy="1766.59" r="26.35" style="fill:#0000FF;fill-opacity:0.50"/>
	<circle cx="1005.59" cy="1766.59" r="22.03" style="fill:none;stroke:#0000FF;stroke-opacity:0.50;stroke-width:8.64"/>
	<circle cx="1172.28" cy="2119.78" r="26.35" style="fill:#0000FF;fill-opacity:0.50"/>
	<circle cx="1172.28" cy="2119.78" r="22.03" style="fill:none;stroke:#0000FF;stroke-opacity:0.50;stroke-width:8.64"/>
	<circle cx="1445.15" cy="1156.23" r="26.35" style="fill:#0000FF;fill-opacity:0.50"/>
	<circle cx="1445.15" cy="1156.23" r="22.03" style="fill:none;stroke:#0000FF;stroke-opacity:0.50;stroke-width:8.64"/>
	<circle cx="1286.01" cy="1988.11" r="26.35" style="fill:#0000FF;fill-opacity:0.50"/>
	<circle cx="1286.01" cy="1988.11" r="22.03" style="fill:none;stroke:#0000FF;stroke-opacity:0.50;stroke-width:8.64"/>
	<circle cx="1642.16" cy="1156.23" r="26.35" style="fill:#0000FF;fill-opacity:0.50"/>
	<circle cx="1642.16" cy="1156.23" r="22.03" style="fill:none;stroke:#0000FF;stroke-opacity:0.50;stroke-width:8.64"/>
	<circle cx="1255.69" cy="1587.51" r="26.35" style="fill:#0000FF;fill-opacity:0.50"/>
	<circle cx="1255.69" cy="1587.51" r="22.03" style="fill:none;stroke:#0000FF;stroke-opacity:0.50;stroke-width:8.64"/>
	<circle cx="1164.73" cy="2269.15" r="26.35" style="fill:#0000FF;fill-opacity:0.50"/>
	<circle cx="1164.73" cy="2269.15" r="22.03" style="fill:none;stroke:#0000FF;stroke-opacity:0.50;stroke-width:8.64"/>
	<circle cx="1081.33" cy="1711.64" r="26.35" style="fill:#0000FF;fill-opacity:0.50"/>
	<circle cx="1081.33" cy="1711.64" r="22.03" style="fill:none;stroke:#0000FF;stroke-opacity:0.50;stroke-width:8.64"/>
	<circle cx="1126.87" cy="1711.64" r="26.35" style="fill:#0000FF;fill-opacity:0.50"/>
	<circle cx="1126.87" cy="1711.64" r="22.03" style="fill:none;stroke:#0000FF;stroke-opacity:0.50;stroke-width:8.64"/>
	<circle cx="2021.09" cy="1039.53" r="26.35" style="fill:#0000FF;fill-opacity:0.50"/>
	<circle cx="2021.09" cy="1039.53" r="22.03" style="fill:none;stroke:#0000FF;stroke-opacity:0.50;stroke-width:8.64"/>
	<line x1="390.80" y1="2489.19" x2="390.80" y2="100.86" style="stroke:#000000;stroke-width:5.76"/>
	<line x1="390.80" y1="2425.82" x2="350.83" y2="2425.82" style="stroke:#000000;stroke-width:5.76"/>
	<text x="300.72" y="2425.82" style="font-family:'Helvetica';font-size:99.99px;fill:#000000" transform="rotate(-90 300.72,2425.82)" text-anchor="middle">2</text>
	<line x1="390.80" y1="1711.64" x2="350.83" y2="1711.64" style="stroke:#000000;stroke-width:5.76"/>
	<text x="300.72" y="1711.64" style="font-family:'Helvetica';font-size:99.99px;fill:#000000" transform="rotate(-90 300.72,1711.64)" text-anchor="middle">4</text>
	<line x1="390.80" y1="997.46" x2="350.83" y2="997.46" style="stroke:#000000;stroke-width:5.76"/>
	<text x="300.72" y="997.46" style="font-family:'Helvetica';font-size:99.99px;fill:#000000" transform="rotate(-90 300.72,997.46)" text-anchor="middle">6</text>
	<line x1="390.80" y1="283.15" x2="350.83" y2="283.15" style="stroke:#000000;stroke-width:5.76"/>
	<text x="300.72" y="283.15" style="font-family:'Helvetica';font-size:99.99px;fill:#000000" transform="rotate(-90 300.72,283.15)" text-anchor="middle">8</text>
	<text x="190.71" y="1294.96" style="font-family:'Helvetica';font-size:99.99px;fill:#000000" transform="rotate(-90 190.71,1294.96)" text-anchor="middle">油量消耗(公升每一百公里)</text>
	<line x1="390.80" y1="2489.19" x2="3859.02" y2="2489.19" style="stroke:#000000;stroke-width:5.76"/>
	<line x1="454.16" y1="2489.19" x2="454.16" y2="2529.16" style="stroke:#000000;stroke-width:5.76"/>
	<text x="454.16" y="2619.14" style="font-family:'Helvetica';font-size:99.99px;fill:#000000" text-anchor="middle">500</text>
	<line x1="1289.47" y1="2489.19" x2="1289.47" y2="2529.16" style="stroke:#000000;stroke-width:5.76"/>
	<text x="1289.47" y="2619.14" style="font-family:'Helvetica';font-size:99.99px;fill:#000000" text-anchor="middle">1,000</text>
	<line x1="2124.91" y1="2489.19" x2="2124.91" y2="2529.16" style="stroke:#000000;stroke-width:5.76"/>
	<text x="2124.91" y="2619.14" style="font-family:'Helvetica';font-size:99.99px;fill:#000000" text-anchor="middle">1,500</text>
	<line x1="2960.35" y1="2489.19" x2="2960.35" y2="2529.16" style="stroke:#000000;stroke-width:5.76"/>
	<text x="2960.35" y="2619.14" style="font-family:'Helvetica';font-size:99.99px;fill:#000000" text-anchor="middle">2,000</text>
	<line x1="3795.66" y1="2489.19" x2="3795.66" y2="2529.16" style="stroke:#000000;stroke-width:5.76"/>
	<text x="3795.66" y="2619.14" style="font-family:'Helvetica';font-size:99.99px;fill:#000000" text-anchor="middle">2,500</text>
	<text x="2124.91" y="2729.16" style="font-family:'Helvetica';font-size:99.99px;fill:#000000" text-anchor="middle">重量(公斤)</text>
</svg>
